<svg width="24" height="24" viewBox="0 0 24 24" fill="none" xmlns="http://www.w3.org/2000/svg">
<path d="M18.675 4.6L15.85 7.45C14.8 6.475 13.425 5.925 12 5.95C9.375 5.95 7.175 7.725 6.375 10.075C5.95 11.35 5.95 12.65 6.375 13.925C7.175 16.275 9.375 18.05 12 18.05C13.35 18.05 14.5 17.7 15.4 17.075C16.45 16.375 17.175 15.3 17.4 14.05H12V10.2H21.45C21.55 10.85 21.6 11.55 21.6 12.225C21.6 15.25 20.5 17.85 18.65 19.575C16.95 21.125 14.7 22 12 22C8.225 22 4.75 19.875 3.075 16.5C1.65 13.65 1.65 10.35 3.075 7.5C4.75 4.15 8.225 2 12 2C14.5 1.95 16.875 2.925 18.675 4.6Z" fill="#3D3D40"/>
</svg>
