<svg width="24" height="24" viewBox="0 0 24 24" fill="none" xmlns="http://www.w3.org/2000/svg">
<path d="M6 20C5.26667 20 4.59167 19.825 3.975 19.475C3.375 19.1083 2.89167 18.625 2.525 18.025C2.175 17.4083 2 16.7333 2 16V8C2 7.26667 2.175 6.59167 2.525 5.975C2.89167 5.35833 3.375 4.875 3.975 4.525C4.59167 4.175 5.26667 4 6 4H14C14.7333 4 15.4 4.175 16 4.525C16.6167 4.875 17.1 5.35833 17.45 5.975C17.8167 6.59167 18 7.26667 18 8V16C18 16.7333 17.8167 17.4083 17.45 18.025C17.1 18.625 16.6167 19.1083 16 19.475C15.4 19.825 14.7333 20 14 20H6ZM14 18C14.6333 18 15.125 17.825 15.475 17.475C15.825 17.1083 16 16.6167 16 16V8C16 7.36667 15.825 6.875 15.475 6.525C15.125 6.175 14.6333 6 14 6H6C5.38333 6 4.89167 6.175 4.525 6.525C4.175 6.875 4 7.36667 4 8V16C4 16.6167 4.175 17.1083 4.525 17.475C4.89167 17.825 5.38333 18 6 18H14ZM16 13.5V10.5L19.35 8C19.7333 7.71667 20.125 7.6 20.525 7.65C20.9417 7.68333 21.2917 7.85833 21.575 8.175C21.8583 8.475 22 8.85833 22 9.325V14.675C22 15.1417 21.8583 15.5333 21.575 15.85C21.2917 16.15 20.9417 16.325 20.525 16.375C20.125 16.4083 19.7333 16.2833 19.35 16L16 13.5ZM20 9.325C20 9.39167 20.0333 9.45 20.1 9.5C20.1833 9.55 20.2667 9.59167 20.35 9.625C20.4333 9.64167 20.5 9.63333 20.55 9.6L18 11.5V12.5L20.55 14.4C20.5 14.35 20.4333 14.3417 20.35 14.375C20.2667 14.4083 20.1833 14.45 20.1 14.5C20.0333 14.55 20 14.6083 20 14.675V9.325Z" fill="#3D3D40"/>
</svg>
